# xmcd CD database file
#
# Track frame offsets:
#	150
#	20287
#	40967
#	59837
#	77425
#	96855
#
# Disc length: 1499 seconds
#
# Revision: 2
# Processed by: cddbd v1.4b41PL1 Copyright (c) Steve Scherf et al.
# Submitted via: Feurio! 1.52 - http://www.feurio.com
#
DISCID=4405d906
DTITLE=Crapulence - Beyond Redemption
DYEAR=1900
DGENRE=
TTITLE0=Rinse Well
TTITLE1=Auditing
TTITLE2=Beyond Redemption
TTITLE3=Generation X
TTITLE4=Appropiate?
TTITLE5=Void Voice
EXTD=
EXTT0=
EXTT1=
EXTT2=
EXTT3=
EXTT4=
EXTT5=
PLAYORDER=
